<svg xmlns="http://www.w3.org/2000/svg" width="450" height="450" viewBox="0 0 450 450"><defs><style>.a{fill:#9fff7c;}.b{fill:#767676;}.c,.f{fill:none;}.c{stroke:#fff;stroke-width:20px;}.d{fill:#fff;}.e{stroke:none;}</style></defs><g transform="translate(-134 -13)"><circle class="a" cx="225" cy="225" r="225" transform="translate(134 13)"/><path class="b" d="M50,232A50,50,0,0,1,0,182V82A50,50,0,0,1,50,32H72.338A50.019,50.019,0,0,1,119,0h62a50.019,50.019,0,0,1,46.662,32H250a50,50,0,0,1,50,50V182a50,50,0,0,1-50,50Z" transform="translate(209 106)"/><g class="c" transform="translate(294 173)"><circle class="e" cx="65" cy="65" r="65"/><circle class="f" cx="65" cy="65" r="55"/></g><circle class="d" cx="15" cy="15" r="15" transform="translate(237 166)"/></g></svg>